<svg id="Capa_1" enable-background="new 0 0 510 510" height="512" viewBox="0 0 510 510" width="512" xmlns="http://www.w3.org/2000/svg"><path d="m495 91.8c-8.284 0-15-6.716-15-15v-46.8h-45.3c-8.284 0-15-6.716-15-15s6.716-15 15-15h60.3c8.284 0 15 6.716 15 15v61.8c0 8.284-6.716 15-15 15z" fill="#7ed7ff"/><path d="m15 91.8c-8.284 0-15-6.716-15-15v-61.8c0-8.284 6.716-15 15-15h60.3c8.284 0 15 6.716 15 15s-6.716 15-15 15h-45.3v46.8c0 8.284-6.716 15-15 15z" fill="#bfebff"/><path d="m495 510h-60.3c-8.284 0-15-6.716-15-15s6.716-15 15-15h45.3v-43.8c0-8.284 6.716-15 15-15s15 6.716 15 15v58.8c0 8.284-6.716 15-15 15z" fill="#7ed7ff"/><path d="m75.3 510h-60.3c-8.284 0-15-6.716-15-15v-58.8c0-8.284 6.716-15 15-15s15 6.716 15 15v43.8h45.3c8.284 0 15 6.716 15 15s-6.716 15-15 15z" fill="#bfebff"/><path d="m402.97 254.99c0 81.729-66.25 147.979-147.97 147.979s-147.97-66.249-147.97-147.979c0-81.71 66.25-147.96 147.97-147.96s147.97 66.25 147.97 147.96z" fill="#bfebff"/><path d="m402.97 254.99c0 81.729-66.25 147.979-147.97 147.979v-295.939c81.72 0 147.97 66.25 147.97 147.96z" fill="#7ed7ff"/><path d="m402.97 254.99c0 81.729-66.25 147.979-147.97 147.979s-147.97-66.249-147.97-147.979c0 40.86 33.12 74 73.98 74s73.99-33.14 73.99-74c0-40.85 33.13-73.98 73.99-73.98s73.98 33.13 73.98 73.98z" fill="#435d7a"/><path d="m402.97 254.99c0 81.729-66.25 147.979-147.97 147.979v-147.979c0-40.85 33.13-73.98 73.99-73.98s73.98 33.13 73.98 73.98z" fill="#2d3e53"/><path d="m335 237.885c-8.284 0-15 6.716-15 15v6c0 8.284 6.716 15 15 15s15-6.716 15-15v-6c0-8.284-6.716-15-15-15z" fill="#7ed7ff"/><path d="m175 237.885c-8.284 0-15 6.716-15 15v6c0 8.284 6.716 15 15 15s15-6.716 15-15v-6c0-8.284-6.716-15-15-15z" fill="#2d3e53"/><path d="m270 36.15v16.5c0 8.28-6.72 15-15 15s-15-6.72-15-15v-16.5c0-8.29 6.72-15 15-15s15 6.71 15 15z" fill="#bfebff"/><path d="m270 36.15v16.5c0 8.28-6.72 15-15 15v-46.5c8.28 0 15 6.71 15 15z" fill="#7ed7ff"/><path d="m270 457.35v16.5c0 8.29-6.72 15-15 15s-15-6.71-15-15v-16.5c0-8.28 6.72-15 15-15s15 6.72 15 15z" fill="#bfebff"/><path d="m270 457.35v16.5c0 8.29-6.72 15-15 15v-46.5c8.28 0 15 6.72 15 15z" fill="#7ed7ff"/><path d="m473.854 240h-16.5c-8.284 0-15 6.716-15 15s6.716 15 15 15h16.5c8.284 0 15-6.716 15-15s-6.715-15-15-15z" fill="#7ed7ff"/><path d="m52.646 240h-16.5c-8.284 0-15 6.716-15 15s6.716 15 15 15h16.5c8.284 0 15-6.716 15-15s-6.716-15-15-15z" fill="#bfebff"/><path d="m408.694 122.52 11.666-11.667c5.857-5.858 5.856-15.355-.001-21.213-5.859-5.857-15.356-5.857-21.214.001l-11.666 11.667c-5.857 5.858-5.856 15.355.001 21.213 5.862 5.859 15.359 5.855 21.214-.001z" fill="#2d3e53"/><path d="m101.306 387.48-11.666 11.667c-5.857 5.858-5.856 15.355.001 21.213 5.861 5.859 15.358 5.856 21.214-.001l11.666-11.667c5.857-5.858 5.856-15.355-.001-21.213-5.86-5.857-15.357-5.857-21.214.001z" fill="#435d7a"/><path d="m408.694 387.48c-5.858-5.859-15.355-5.859-21.214-.001-5.857 5.857-5.858 15.355-.001 21.213l11.666 11.667c5.857 5.857 15.355 5.86 21.214.001 5.857-5.857 5.858-15.355.001-21.213z" fill="#2d3e53"/><path d="m110.854 89.641c-5.859-5.858-15.356-5.859-21.214-.001-5.857 5.857-5.858 15.355-.001 21.213l11.666 11.667c5.857 5.857 15.355 5.86 21.214.001 5.857-5.857 5.858-15.355.001-21.213z" fill="#435d7a"/></svg>